<mxfile host="app.diagrams.net" modified="2023-12-01T20:29:22.490Z" agent="Mozilla/5.0 (Windows NT 10.0; Win64; x64) AppleWebKit/537.36 (KHTML, like Gecko) Chrome/116.0.5845.686 YaBrowser/23.9.5.686 Yowser/2.5 Safari/537.36" etag="nWEhLGUP4wtevrllpbAn" version="22.1.5" type="device">
  <diagram name="Страница — 1" id="c1QQsVTEN3h_lQcpwjBq">
    <mxGraphModel dx="2351" dy="2055" grid="1" gridSize="10" guides="1" tooltips="1" connect="1" arrows="1" fold="1" page="1" pageScale="1" pageWidth="827" pageHeight="1169" math="0" shadow="0">
      <root>
        <mxCell id="0" />
        <mxCell id="1" parent="0" />
        <mxCell id="GrHUkwTFWoUS6pLqWqhf-1" value="Пользователь Хабролинкера" style="swimlane;fontStyle=0;childLayout=stackLayout;horizontal=1;startSize=26;fillColor=none;horizontalStack=0;resizeParent=1;resizeParentMax=0;resizeLast=0;collapsible=1;marginBottom=0;whiteSpace=wrap;html=1;" parent="1" vertex="1">
          <mxGeometry x="60" y="308" width="170" height="52" as="geometry">
            <mxRectangle x="340" y="310" width="100" height="30" as="alternateBounds" />
          </mxGeometry>
        </mxCell>
        <mxCell id="GrHUkwTFWoUS6pLqWqhf-2" value="+ string: полное имя" style="text;strokeColor=none;fillColor=none;align=left;verticalAlign=top;spacingLeft=4;spacingRight=4;overflow=hidden;rotatable=0;points=[[0,0.5],[1,0.5]];portConstraint=eastwest;whiteSpace=wrap;html=1;" parent="GrHUkwTFWoUS6pLqWqhf-1" vertex="1">
          <mxGeometry y="26" width="170" height="26" as="geometry" />
        </mxCell>
        <mxCell id="GrHUkwTFWoUS6pLqWqhf-5" value="Параметры поиска" style="swimlane;fontStyle=0;childLayout=stackLayout;horizontal=1;startSize=30;fillColor=none;horizontalStack=0;resizeParent=1;resizeParentMax=0;resizeLast=0;collapsible=1;marginBottom=0;whiteSpace=wrap;html=1;" parent="1" vertex="1">
          <mxGeometry x="350" y="140" width="230" height="160" as="geometry">
            <mxRectangle x="440" y="120" width="150" height="30" as="alternateBounds" />
          </mxGeometry>
        </mxCell>
        <mxCell id="GrHUkwTFWoUS6pLqWqhf-6" value="+ string: Специализация" style="text;strokeColor=none;fillColor=none;align=left;verticalAlign=top;spacingLeft=4;spacingRight=4;overflow=hidden;rotatable=0;points=[[0,0.5],[1,0.5]];portConstraint=eastwest;whiteSpace=wrap;html=1;" parent="GrHUkwTFWoUS6pLqWqhf-5" vertex="1">
          <mxGeometry y="30" width="230" height="26" as="geometry" />
        </mxCell>
        <mxCell id="GrHUkwTFWoUS6pLqWqhf-7" value="+ string: Умения" style="text;strokeColor=none;fillColor=none;align=left;verticalAlign=top;spacingLeft=4;spacingRight=4;overflow=hidden;rotatable=0;points=[[0,0.5],[1,0.5]];portConstraint=eastwest;whiteSpace=wrap;html=1;" parent="GrHUkwTFWoUS6pLqWqhf-5" vertex="1">
          <mxGeometry y="56" width="230" height="26" as="geometry" />
        </mxCell>
        <mxCell id="GrHUkwTFWoUS6pLqWqhf-8" value="+ int: Карма" style="text;strokeColor=none;fillColor=none;align=left;verticalAlign=top;spacingLeft=4;spacingRight=4;overflow=hidden;rotatable=0;points=[[0,0.5],[1,0.5]];portConstraint=eastwest;whiteSpace=wrap;html=1;" parent="GrHUkwTFWoUS6pLqWqhf-5" vertex="1">
          <mxGeometry y="82" width="230" height="26" as="geometry" />
        </mxCell>
        <mxCell id="GrHUkwTFWoUS6pLqWqhf-17" value="+ int: Рейтинг" style="text;strokeColor=none;fillColor=none;align=left;verticalAlign=top;spacingLeft=4;spacingRight=4;overflow=hidden;rotatable=0;points=[[0,0.5],[1,0.5]];portConstraint=eastwest;whiteSpace=wrap;html=1;" parent="GrHUkwTFWoUS6pLqWqhf-5" vertex="1">
          <mxGeometry y="108" width="230" height="26" as="geometry" />
        </mxCell>
        <mxCell id="GrHUkwTFWoUS6pLqWqhf-18" value="+ string: Локация" style="text;strokeColor=none;fillColor=none;align=left;verticalAlign=top;spacingLeft=4;spacingRight=4;overflow=hidden;rotatable=0;points=[[0,0.5],[1,0.5]];portConstraint=eastwest;whiteSpace=wrap;html=1;" parent="GrHUkwTFWoUS6pLqWqhf-5" vertex="1">
          <mxGeometry y="134" width="230" height="26" as="geometry" />
        </mxCell>
        <mxCell id="GrHUkwTFWoUS6pLqWqhf-13" value="Отправитель" style="text;html=1;strokeColor=none;fillColor=none;align=center;verticalAlign=middle;whiteSpace=wrap;rounded=0;" parent="1" vertex="1">
          <mxGeometry x="-70" y="25" width="70" height="30" as="geometry" />
        </mxCell>
        <mxCell id="GrHUkwTFWoUS6pLqWqhf-19" value="" style="triangle;whiteSpace=wrap;html=1;fillColor=#000000;rotation=-180;" parent="1" vertex="1">
          <mxGeometry x="-98" y="30" width="20" height="20" as="geometry" />
        </mxCell>
        <mxCell id="GrHUkwTFWoUS6pLqWqhf-27" value="Список единомышленников" style="swimlane;fontStyle=0;childLayout=stackLayout;horizontal=1;startSize=83;fillColor=none;horizontalStack=0;resizeParent=1;resizeParentMax=0;resizeLast=0;collapsible=1;marginBottom=0;whiteSpace=wrap;html=1;" parent="1" vertex="1" collapsed="1">
          <mxGeometry x="470" y="557" width="230" height="83" as="geometry">
            <mxRectangle x="470" y="557" width="230" height="100" as="alternateBounds" />
          </mxGeometry>
        </mxCell>
        <mxCell id="GrHUkwTFWoUS6pLqWqhf-34" value="Находит" style="text;html=1;strokeColor=none;fillColor=none;align=center;verticalAlign=middle;whiteSpace=wrap;rounded=0;" parent="1" vertex="1">
          <mxGeometry x="340" y="410" width="70" height="30" as="geometry" />
        </mxCell>
        <mxCell id="GrHUkwTFWoUS6pLqWqhf-36" value="" style="endArrow=none;startArrow=none;endFill=0;startFill=0;html=1;verticalAlign=bottom;labelBackgroundColor=none;strokeWidth=1;startSize=8;endSize=8;rounded=0;exitX=0;exitY=0.5;exitDx=0;exitDy=0;entryX=0.737;entryY=0.987;entryDx=0;entryDy=0;entryPerimeter=0;" parent="1" target="GrHUkwTFWoUS6pLqWqhf-45" edge="1">
          <mxGeometry width="160" relative="1" as="geometry">
            <mxPoint x="470" y="607" as="sourcePoint" />
            <mxPoint x="144.31999999999994" y="224.33799999999997" as="targetPoint" />
            <Array as="points">
              <mxPoint x="280" y="607" />
              <mxPoint x="280" y="130" />
              <mxPoint x="185" y="130" />
            </Array>
          </mxGeometry>
        </mxCell>
        <mxCell id="GrHUkwTFWoUS6pLqWqhf-38" value="*" style="text;html=1;strokeColor=none;fillColor=none;align=center;verticalAlign=middle;whiteSpace=wrap;rounded=0;fontSize=17;" parent="1" vertex="1">
          <mxGeometry x="180" y="92" width="20" height="26" as="geometry" />
        </mxCell>
        <mxCell id="GrHUkwTFWoUS6pLqWqhf-40" value="*" style="text;html=1;strokeColor=none;fillColor=none;align=center;verticalAlign=middle;whiteSpace=wrap;rounded=0;fontSize=17;" parent="1" vertex="1">
          <mxGeometry x="440" y="585" width="20" height="26" as="geometry" />
        </mxCell>
        <mxCell id="GrHUkwTFWoUS6pLqWqhf-42" value="Зарегистрированный пользователь Хабролинкера" style="swimlane;fontStyle=0;childLayout=stackLayout;horizontal=1;startSize=30;fillColor=none;horizontalStack=0;resizeParent=1;resizeParentMax=0;resizeLast=0;collapsible=1;marginBottom=0;whiteSpace=wrap;html=1;" parent="1" vertex="1">
          <mxGeometry x="60" y="10" width="170" height="82" as="geometry">
            <mxRectangle x="340" y="310" width="100" height="30" as="alternateBounds" />
          </mxGeometry>
        </mxCell>
        <mxCell id="GrHUkwTFWoUS6pLqWqhf-44" value="+ string: логин" style="text;strokeColor=none;fillColor=none;align=left;verticalAlign=top;spacingLeft=4;spacingRight=4;overflow=hidden;rotatable=0;points=[[0,0.5],[1,0.5]];portConstraint=eastwest;whiteSpace=wrap;html=1;" parent="GrHUkwTFWoUS6pLqWqhf-42" vertex="1">
          <mxGeometry y="30" width="170" height="26" as="geometry" />
        </mxCell>
        <mxCell id="GrHUkwTFWoUS6pLqWqhf-45" value="+ string: пароль" style="text;strokeColor=none;fillColor=none;align=left;verticalAlign=top;spacingLeft=4;spacingRight=4;overflow=hidden;rotatable=0;points=[[0,0.5],[1,0.5]];portConstraint=eastwest;whiteSpace=wrap;html=1;" parent="GrHUkwTFWoUS6pLqWqhf-42" vertex="1">
          <mxGeometry y="56" width="170" height="26" as="geometry" />
        </mxCell>
        <mxCell id="GrHUkwTFWoUS6pLqWqhf-49" value="" style="endArrow=block;html=1;rounded=0;align=center;verticalAlign=bottom;endFill=0;labelBackgroundColor=none;endSize=8;entryX=0.5;entryY=0;entryDx=0;entryDy=0;exitX=0.5;exitY=1.013;exitDx=0;exitDy=0;exitPerimeter=0;" parent="1" source="GrHUkwTFWoUS6pLqWqhf-45" target="GrHUkwTFWoUS6pLqWqhf-1" edge="1">
          <mxGeometry relative="1" as="geometry">
            <mxPoint x="250" y="120" as="sourcePoint" />
            <mxPoint x="420" y="385" as="targetPoint" />
          </mxGeometry>
        </mxCell>
        <mxCell id="GrHUkwTFWoUS6pLqWqhf-51" value="Пользователь Хабра" style="swimlane;fontStyle=0;childLayout=stackLayout;horizontal=1;startSize=50;fillColor=none;horizontalStack=0;resizeParent=1;resizeParentMax=0;resizeLast=0;collapsible=1;marginBottom=0;whiteSpace=wrap;html=1;" parent="1" vertex="1">
          <mxGeometry x="800" y="10" width="170" height="76" as="geometry">
            <mxRectangle x="340" y="310" width="100" height="30" as="alternateBounds" />
          </mxGeometry>
        </mxCell>
        <mxCell id="GrHUkwTFWoUS6pLqWqhf-52" value="+ string: полное имя" style="text;strokeColor=none;fillColor=none;align=left;verticalAlign=top;spacingLeft=4;spacingRight=4;overflow=hidden;rotatable=0;points=[[0,0.5],[1,0.5]];portConstraint=eastwest;whiteSpace=wrap;html=1;" parent="GrHUkwTFWoUS6pLqWqhf-51" vertex="1">
          <mxGeometry y="50" width="170" height="26" as="geometry" />
        </mxCell>
        <mxCell id="GrHUkwTFWoUS6pLqWqhf-53" value="" style="endArrow=none;startArrow=none;endFill=0;startFill=0;html=1;verticalAlign=bottom;labelBackgroundColor=none;strokeWidth=1;startSize=8;endSize=8;rounded=0;exitX=1;exitY=0.25;exitDx=0;exitDy=0;entryX=0;entryY=0.25;entryDx=0;entryDy=0;" parent="1" source="GrHUkwTFWoUS6pLqWqhf-42" target="GrHUkwTFWoUS6pLqWqhf-51" edge="1">
          <mxGeometry width="160" relative="1" as="geometry">
            <mxPoint x="480" y="595" as="sourcePoint" />
            <mxPoint x="720" y="50" as="targetPoint" />
            <Array as="points" />
          </mxGeometry>
        </mxCell>
        <mxCell id="GrHUkwTFWoUS6pLqWqhf-54" value="0..1" style="text;html=1;strokeColor=none;fillColor=none;align=center;verticalAlign=middle;whiteSpace=wrap;rounded=0;fontSize=17;" parent="1" vertex="1">
          <mxGeometry x="240" y="10" width="20" height="26" as="geometry" />
        </mxCell>
        <mxCell id="GrHUkwTFWoUS6pLqWqhf-55" value="0..1" style="text;html=1;strokeColor=none;fillColor=none;align=center;verticalAlign=middle;whiteSpace=wrap;rounded=0;fontSize=17;" parent="1" vertex="1">
          <mxGeometry x="760" width="40" height="26" as="geometry" />
        </mxCell>
        <mxCell id="GrHUkwTFWoUS6pLqWqhf-56" value="" style="endArrow=none;startArrow=none;endFill=0;startFill=0;html=1;verticalAlign=bottom;labelBackgroundColor=none;strokeWidth=1;startSize=8;endSize=8;rounded=0;exitX=1;exitY=0.5;exitDx=0;exitDy=0;" parent="1" target="GrHUkwTFWoUS6pLqWqhf-51" edge="1">
          <mxGeometry width="160" relative="1" as="geometry">
            <mxPoint x="700" y="607" as="sourcePoint" />
            <mxPoint x="154" y="222" as="targetPoint" />
            <Array as="points">
              <mxPoint x="885" y="607" />
            </Array>
          </mxGeometry>
        </mxCell>
        <mxCell id="GrHUkwTFWoUS6pLqWqhf-57" value="*" style="text;html=1;strokeColor=none;fillColor=none;align=center;verticalAlign=middle;whiteSpace=wrap;rounded=0;fontSize=17;" parent="1" vertex="1">
          <mxGeometry x="710" y="585" width="20" height="26" as="geometry" />
        </mxCell>
        <mxCell id="GrHUkwTFWoUS6pLqWqhf-58" value="*" style="text;html=1;strokeColor=none;fillColor=none;align=center;verticalAlign=middle;whiteSpace=wrap;rounded=0;fontSize=17;" parent="1" vertex="1">
          <mxGeometry x="860" y="80" width="20" height="26" as="geometry" />
        </mxCell>
        <mxCell id="GrHUkwTFWoUS6pLqWqhf-59" value="Сообщение" style="swimlane;fontStyle=0;childLayout=stackLayout;horizontal=1;startSize=40;fillColor=none;horizontalStack=0;resizeParent=1;resizeParentMax=0;resizeLast=0;collapsible=1;marginBottom=0;whiteSpace=wrap;html=1;" parent="1" vertex="1">
          <mxGeometry x="-322" y="21.5" width="170" height="80" as="geometry">
            <mxRectangle x="340" y="310" width="100" height="30" as="alternateBounds" />
          </mxGeometry>
        </mxCell>
        <mxCell id="GrHUkwTFWoUS6pLqWqhf-62" value="+ string: Текст сообщения" style="text;strokeColor=none;fillColor=none;align=left;verticalAlign=top;spacingLeft=4;spacingRight=4;overflow=hidden;rotatable=0;points=[[0,0.5],[1,0.5]];portConstraint=eastwest;whiteSpace=wrap;html=1;" parent="GrHUkwTFWoUS6pLqWqhf-59" vertex="1">
          <mxGeometry y="40" width="170" height="40" as="geometry" />
        </mxCell>
        <mxCell id="GrHUkwTFWoUS6pLqWqhf-63" value="" style="endArrow=none;html=1;rounded=0;entryX=1;entryY=0.5;entryDx=0;entryDy=0;exitX=0;exitY=0.5;exitDx=0;exitDy=0;" parent="1" source="GrHUkwTFWoUS6pLqWqhf-45" edge="1">
          <mxGeometry relative="1" as="geometry">
            <mxPoint x="20" y="210" as="sourcePoint" />
            <mxPoint x="-152" y="79" as="targetPoint" />
          </mxGeometry>
        </mxCell>
        <mxCell id="GrHUkwTFWoUS6pLqWqhf-64" value="1" style="resizable=0;html=1;whiteSpace=wrap;align=left;verticalAlign=bottom;fontSize=17;" parent="GrHUkwTFWoUS6pLqWqhf-63" connectable="0" vertex="1">
          <mxGeometry x="-1" relative="1" as="geometry">
            <mxPoint x="-20" y="21" as="offset" />
          </mxGeometry>
        </mxCell>
        <mxCell id="GrHUkwTFWoUS6pLqWqhf-65" value="*" style="resizable=0;html=1;whiteSpace=wrap;align=right;verticalAlign=bottom;fontSize=17;" parent="GrHUkwTFWoUS6pLqWqhf-63" connectable="0" vertex="1">
          <mxGeometry x="1" relative="1" as="geometry">
            <mxPoint x="20" y="21" as="offset" />
          </mxGeometry>
        </mxCell>
        <mxCell id="GrHUkwTFWoUS6pLqWqhf-68" value="Получатель" style="text;html=1;strokeColor=none;fillColor=none;align=center;verticalAlign=middle;whiteSpace=wrap;rounded=0;" parent="1" vertex="1">
          <mxGeometry x="-98" y="76" width="70" height="30" as="geometry" />
        </mxCell>
        <mxCell id="GrHUkwTFWoUS6pLqWqhf-69" value="" style="triangle;whiteSpace=wrap;html=1;fillColor=#000000;rotation=0;" parent="1" vertex="1">
          <mxGeometry x="-28" y="80.5" width="20" height="21" as="geometry" />
        </mxCell>
        <mxCell id="GrHUkwTFWoUS6pLqWqhf-70" value="" style="endArrow=none;html=1;rounded=0;entryX=0;entryY=0.5;entryDx=0;entryDy=0;exitX=1;exitY=0.5;exitDx=0;exitDy=0;" parent="1" target="GrHUkwTFWoUS6pLqWqhf-44" edge="1">
          <mxGeometry relative="1" as="geometry">
            <mxPoint x="-152" y="53" as="sourcePoint" />
            <mxPoint x="-230" y="263" as="targetPoint" />
          </mxGeometry>
        </mxCell>
        <mxCell id="GrHUkwTFWoUS6pLqWqhf-71" value="*" style="resizable=0;html=1;whiteSpace=wrap;align=left;verticalAlign=bottom;fontSize=17;" parent="GrHUkwTFWoUS6pLqWqhf-70" connectable="0" vertex="1">
          <mxGeometry x="-1" relative="1" as="geometry">
            <mxPoint x="10" y="-2" as="offset" />
          </mxGeometry>
        </mxCell>
        <mxCell id="GrHUkwTFWoUS6pLqWqhf-72" value="1" style="resizable=0;html=1;whiteSpace=wrap;align=right;verticalAlign=bottom;fontSize=17;" parent="GrHUkwTFWoUS6pLqWqhf-70" connectable="0" vertex="1">
          <mxGeometry x="1" relative="1" as="geometry">
            <mxPoint x="-10" y="2" as="offset" />
          </mxGeometry>
        </mxCell>
        <mxCell id="GrHUkwTFWoUS6pLqWqhf-80" value="" style="triangle;whiteSpace=wrap;html=1;fillColor=#000000;rotation=0;" parent="1" vertex="1">
          <mxGeometry x="170" y="-91" width="20" height="21" as="geometry" />
        </mxCell>
        <mxCell id="JrKGEBBw_S2lNS5VgCGZ-3" value="" style="endArrow=none;html=1;rounded=0;entryX=0.25;entryY=0;entryDx=0;entryDy=0;exitX=1.022;exitY=-0.054;exitDx=0;exitDy=0;exitPerimeter=0;" parent="1" source="GrHUkwTFWoUS6pLqWqhf-2" target="GrHUkwTFWoUS6pLqWqhf-27" edge="1">
          <mxGeometry relative="1" as="geometry">
            <mxPoint x="350" y="90" as="sourcePoint" />
            <mxPoint x="340" y="540" as="targetPoint" />
            <Array as="points">
              <mxPoint x="340" y="333" />
              <mxPoint x="340" y="530" />
              <mxPoint x="528" y="530" />
            </Array>
          </mxGeometry>
        </mxCell>
        <mxCell id="JrKGEBBw_S2lNS5VgCGZ-4" value="1" style="resizable=0;html=1;whiteSpace=wrap;align=left;verticalAlign=bottom;" parent="JrKGEBBw_S2lNS5VgCGZ-3" connectable="0" vertex="1">
          <mxGeometry x="-1" relative="1" as="geometry">
            <mxPoint x="2" as="offset" />
          </mxGeometry>
        </mxCell>
        <mxCell id="JrKGEBBw_S2lNS5VgCGZ-5" value="*" style="resizable=0;html=1;whiteSpace=wrap;align=right;verticalAlign=bottom;fontSize=17;" parent="JrKGEBBw_S2lNS5VgCGZ-3" connectable="0" vertex="1">
          <mxGeometry x="1" relative="1" as="geometry">
            <mxPoint x="13" y="-7" as="offset" />
          </mxGeometry>
        </mxCell>
        <mxCell id="JrKGEBBw_S2lNS5VgCGZ-6" value="Сохраняет" style="text;html=1;strokeColor=none;fillColor=none;align=center;verticalAlign=middle;whiteSpace=wrap;rounded=0;" parent="1" vertex="1">
          <mxGeometry x="100" y="-100" width="70" height="30" as="geometry" />
        </mxCell>
        <mxCell id="JrKGEBBw_S2lNS5VgCGZ-7" value="" style="triangle;whiteSpace=wrap;html=1;fillColor=#000000;rotation=90;" parent="1" vertex="1">
          <mxGeometry x="410" y="415" width="20" height="20" as="geometry" />
        </mxCell>
        <mxCell id="JrKGEBBw_S2lNS5VgCGZ-8" value="" style="endArrow=none;html=1;rounded=0;dashed=1;dashPattern=1 2;entryX=0.503;entryY=1.038;entryDx=0;entryDy=0;entryPerimeter=0;" parent="1" edge="1" target="GrHUkwTFWoUS6pLqWqhf-18">
          <mxGeometry relative="1" as="geometry">
            <mxPoint x="466" y="530" as="sourcePoint" />
            <mxPoint x="469" y="260" as="targetPoint" />
          </mxGeometry>
        </mxCell>
        <mxCell id="upjFw5GR03OVDzDVWtXQ-4" value="" style="endArrow=none;html=1;rounded=0;edgeStyle=orthogonalEdgeStyle;" edge="1" parent="1">
          <mxGeometry width="50" height="50" relative="1" as="geometry">
            <mxPoint x="85" y="10" as="sourcePoint" />
            <mxPoint x="205" y="10" as="targetPoint" />
            <Array as="points">
              <mxPoint x="85" y="-60" />
              <mxPoint x="205" y="-60" />
            </Array>
          </mxGeometry>
        </mxCell>
        <mxCell id="upjFw5GR03OVDzDVWtXQ-5" value="" style="endArrow=none;startArrow=none;endFill=0;startFill=0;html=1;verticalAlign=bottom;labelBackgroundColor=none;strokeWidth=1;startSize=8;endSize=8;rounded=0;exitX=1;exitY=0.25;exitDx=0;exitDy=0;entryX=0;entryY=0.25;entryDx=0;entryDy=0;" edge="1" parent="1">
          <mxGeometry width="160" relative="1" as="geometry">
            <mxPoint x="230" y="62.5" as="sourcePoint" />
            <mxPoint x="800" y="60.5" as="targetPoint" />
            <Array as="points" />
          </mxGeometry>
        </mxCell>
        <mxCell id="upjFw5GR03OVDzDVWtXQ-6" value="" style="triangle;whiteSpace=wrap;html=1;fillColor=#000000;rotation=0;" vertex="1" parent="1">
          <mxGeometry x="560" y="71" width="20" height="21" as="geometry" />
        </mxCell>
        <mxCell id="upjFw5GR03OVDzDVWtXQ-7" value="Сохраняет" style="text;html=1;strokeColor=none;fillColor=none;align=center;verticalAlign=middle;whiteSpace=wrap;rounded=0;" vertex="1" parent="1">
          <mxGeometry x="490" y="62" width="70" height="30" as="geometry" />
        </mxCell>
      </root>
    </mxGraphModel>
  </diagram>
</mxfile>
